<svg id="visual" viewBox="0 0 900 70" width="900" height="70" xmlns="http://www.w3.org/2000/svg" xmlns:xlink="http://www.w3.org/1999/xlink" version="1.1"><rect x="0" y="0" width="900" height="70" fill="#19283f"></rect><path d="M0 21L10.7 19.8C21.3 18.7 42.7 16.3 64.2 13.7C85.7 11 107.3 8 128.8 6.3C150.3 4.7 171.7 4.3 193 4.2C214.3 4 235.7 4 257 4.7C278.3 5.3 299.7 6.7 321.2 10C342.7 13.3 364.3 18.7 385.8 18.3C407.3 18 428.7 12 450 8.2C471.3 4.3 492.7 2.7 514.2 5.8C535.7 9 557.3 17 578.8 17.8C600.3 18.7 621.7 12.3 643 9.7C664.3 7 685.7 8 707 8.5C728.3 9 749.7 9 771.2 9.8C792.7 10.7 814.3 12.3 835.8 15.5C857.3 18.7 878.7 23.3 889.3 25.7L900 28L900 0L889.3 0C878.7 0 857.3 0 835.8 0C814.3 0 792.7 0 771.2 0C749.7 0 728.3 0 707 0C685.7 0 664.3 0 643 0C621.7 0 600.3 0 578.8 0C557.3 0 535.7 0 514.2 0C492.7 0 471.3 0 450 0C428.7 0 407.3 0 385.8 0C364.3 0 342.7 0 321.2 0C299.7 0 278.3 0 257 0C235.7 0 214.3 0 193 0C171.7 0 150.3 0 128.8 0C107.3 0 85.7 0 64.2 0C42.7 0 21.3 0 10.7 0L0 0Z" fill="#133260" stroke-linecap="round" stroke-linejoin="miter"></path></svg>