<svg id="visual" viewBox="0 0 900 70" width="900" height="70" xmlns="http://www.w3.org/2000/svg" xmlns:xlink="http://www.w3.org/1999/xlink" version="1.1"><path d="M0 40L10.7 43.3C21.3 46.7 42.7 53.3 64.2 51.7C85.7 50 107.3 40 128.8 36.8C150.3 33.7 171.7 37.3 193 42.5C214.3 47.7 235.7 54.3 257 48C278.3 41.7 299.7 22.3 321.2 19.2C342.7 16 364.3 29 385.8 32.7C407.3 36.3 428.7 30.7 450 29.7C471.3 28.7 492.7 32.3 514.2 36.8C535.7 41.3 557.3 46.7 578.8 44.7C600.3 42.7 621.7 33.3 643 28.7C664.3 24 685.7 24 707 24.8C728.3 25.7 749.7 27.3 771.2 30.5C792.7 33.7 814.3 38.3 835.8 35.5C857.3 32.7 878.7 22.3 889.3 17.2L900 12L900 0L889.3 0C878.7 0 857.3 0 835.8 0C814.3 0 792.7 0 771.2 0C749.7 0 728.3 0 707 0C685.7 0 664.3 0 643 0C621.7 0 600.3 0 578.8 0C557.3 0 535.7 0 514.2 0C492.7 0 471.3 0 450 0C428.7 0 407.3 0 385.8 0C364.3 0 342.7 0 321.2 0C299.7 0 278.3 0 257 0C235.7 0 214.3 0 193 0C171.7 0 150.3 0 128.8 0C107.3 0 85.7 0 64.2 0C42.7 0 21.3 0 10.7 0L0 0Z" fill="#ced4da" stroke-linecap="round" stroke-linejoin="miter"></path></svg>