<svg id="visual" viewBox="0 0 900 70" width="900" height="70" xmlns="http://www.w3.org/2000/svg" xmlns:xlink="http://www.w3.org/1999/xlink" version="1.1"><path d="M0 41L10.7 41.7C21.3 42.3 42.7 43.7 64.2 44.8C85.7 46 107.3 47 128.8 46.5C150.3 46 171.7 44 193 39.5C214.3 35 235.7 28 257 28.8C278.3 29.7 299.7 38.3 321.2 39.5C342.7 40.7 364.3 34.3 385.8 28.8C407.3 23.3 428.7 18.7 450 19.3C471.3 20 492.7 26 514.2 31.3C535.7 36.7 557.3 41.3 578.8 44.3C600.3 47.3 621.7 48.7 643 44C664.3 39.3 685.7 28.7 707 25.2C728.3 21.7 749.7 25.3 771.2 22.7C792.7 20 814.3 11 835.8 12.5C857.3 14 878.7 26 889.3 32L900 38L900 0L889.3 0C878.7 0 857.3 0 835.8 0C814.3 0 792.7 0 771.2 0C749.7 0 728.3 0 707 0C685.7 0 664.3 0 643 0C621.7 0 600.3 0 578.8 0C557.3 0 535.7 0 514.2 0C492.7 0 471.3 0 450 0C428.7 0 407.3 0 385.8 0C364.3 0 342.7 0 321.2 0C299.7 0 278.3 0 257 0C235.7 0 214.3 0 193 0C171.7 0 150.3 0 128.8 0C107.3 0 85.7 0 64.2 0C42.7 0 21.3 0 10.7 0L0 0Z" fill="#19283f" stroke-linecap="round" stroke-linejoin="miter"></path></svg>