<svg id="visual" viewBox="0 0 900 70" width="900" height="70" xmlns="http://www.w3.org/2000/svg" xmlns:xlink="http://www.w3.org/1999/xlink" version="1.1"><rect x="0" y="0" width="900" height="70" fill="#19283f"></rect><path d="M0 47L10.7 48.2C21.3 49.3 42.7 51.7 64.2 54.3C85.7 57 107.3 60 128.8 61.7C150.3 63.3 171.7 63.7 193 63.8C214.3 64 235.7 64 257 63.3C278.3 62.7 299.7 61.3 321.2 58C342.7 54.7 364.3 49.3 385.8 49.7C407.3 50 428.7 56 450 59.8C471.3 63.7 492.7 65.3 514.2 62.2C535.7 59 557.3 51 578.8 50.2C600.3 49.3 621.7 55.7 643 58.3C664.3 61 685.7 60 707 59.5C728.3 59 749.7 59 771.2 58.2C792.7 57.3 814.3 55.7 835.8 52.5C857.3 49.3 878.7 44.7 889.3 42.3L900 40L900 71L889.3 71C878.7 71 857.3 71 835.8 71C814.3 71 792.7 71 771.2 71C749.7 71 728.3 71 707 71C685.7 71 664.3 71 643 71C621.7 71 600.3 71 578.8 71C557.3 71 535.7 71 514.2 71C492.7 71 471.3 71 450 71C428.7 71 407.3 71 385.8 71C364.3 71 342.7 71 321.2 71C299.7 71 278.3 71 257 71C235.7 71 214.3 71 193 71C171.7 71 150.3 71 128.8 71C107.3 71 85.7 71 64.2 71C42.7 71 21.3 71 10.7 71L0 71Z" fill="#133260" stroke-linecap="round" stroke-linejoin="miter"></path></svg>